<?xml version="1.0" encoding="utf-8"?>
<!-- Generator: Adobe Illustrator 16.0.0, SVG Export Plug-In . SVG Version: 6.00 Build 0)  -->
<!DOCTYPE svg PUBLIC "-//W3C//DTD SVG 1.0//EN" "http://www.w3.org/TR/2001/REC-SVG-20010904/DTD/svg10.dtd">
<svg version="1.0" xmlns="http://www.w3.org/2000/svg" xmlns:xlink="http://www.w3.org/1999/xlink" x="0px" y="0px" width="350px"
	 height="391px" viewBox="0 0 350 391" enable-background="new 0 0 350 391" xml:space="preserve">
<g id="Layer_1">
	<g>
		<path fill="#0071BC" d="M350,300.833c0,13.75-10.543,28.926-23.429,33.725l-128.143,47.718c-12.885,4.799-33.971,4.799-46.856,0
			L23.428,334.558C10.543,329.759,0,314.583,0,300.833V25C0,11.25,11.25,0,25,0h300c13.75,0,25,11.25,25,25V300.833z"/>
	</g>
	<g>
		<path fill="#FFFFFF" d="M328,99c0,2.75-2.25,5-5,5H27c-2.75,0-5-2.25-5-5V39c0-2.75,2.25-5,5-5h296c2.75,0,5,2.25,5,5V99z"/>
	</g>
	<g>
		<path fill="#FFFFFF" d="M213,198c0,2.75-2.25,5-5,5H27c-2.75,0-5-2.25-5-5v-60c0-2.75,2.25-5,5-5h181c2.75,0,5,2.25,5,5V198z"/>
	</g>
	<g>
		<path fill="#FFFFFF" d="M98,296c0,2.75-2.25,5-5,5H27c-2.75,0-5-2.25-5-5v-60c0-2.75,2.25-5,5-5h66c2.75,0,5,2.25,5,5V296z"/>
	</g>
</g>
<g id="Layer_2">
	<g opacity="0.75">
		<path fill="#FFFFFF" d="M130.935,297.687c-3.123-2.046-5.538-4.938-7.247-8.675c-1.709-3.738-2.563-8.068-2.563-12.99v-19.011
			c0-4.921,0.854-9.251,2.563-12.989c1.709-3.737,4.125-6.628,7.247-8.675c3.122-2.045,6.729-3.068,10.82-3.068
			s7.698,1.023,10.821,3.068c3.122,2.046,5.538,4.938,7.247,8.675c1.708,3.738,2.563,8.068,2.563,12.989v19.011
			c0,4.922-0.855,9.251-2.563,12.99c-1.709,3.737-4.125,6.629-7.247,8.675c-3.123,2.047-6.729,3.067-10.821,3.067
			S134.057,299.733,130.935,297.687z M148.154,289.611c1.844-1.246,3.271-3.015,4.281-5.307c1.01-2.29,1.513-4.944,1.513-7.959
			v-19.657c0-3.014-0.503-5.667-1.513-7.96c-1.01-2.291-2.437-4.061-4.281-5.306c-1.843-1.247-3.976-1.869-6.399-1.869
			c-2.422,0-4.556,0.623-6.399,1.869c-1.844,1.245-3.27,3.015-4.28,5.306c-1.009,2.292-1.514,4.946-1.514,7.96v19.657
			c0,3.015,0.505,5.669,1.514,7.959c1.01,2.292,2.436,4.061,4.28,5.307c1.844,1.246,3.977,1.869,6.399,1.869
			C144.178,291.48,146.311,290.857,148.154,289.611z"/>
		<g>
			<path fill="#FFFFFF" d="M175.711,237.925c0-2.75,1.853-5,4.118-5s4.118,2.25,4.118,5v57.137c0,2.75-1.853,5-4.118,5
				s-4.118-2.25-4.118-5V237.925z M179.304,267.209c0-2.462,2.25-4.476,5-4.476h10.026c2.75,0,6.326-0.193,7.946-0.43
				c0,0,0,0,1.212-0.862c1.211-0.861,2.146-2.083,2.806-3.668c0.659-1.583,0.989-3.406,0.989-5.467s-0.33-3.883-0.989-5.468
				c-0.659-1.584-1.589-2.807-2.785-3.669c-1.198-0.861-2.591-1.292-4.179-1.292h-15.026c-2.75,0-5-2.014-5-4.476
				s2.25-4.476,5-4.476h9.703c2.75,0,7.232,0.28,9.961,0.623c0,0,1.411,0.177,3.981,1.777c2.569,1.6,4.563,3.869,5.976,6.806
				c1.413,2.938,2.12,6.329,2.12,10.174s-0.713,7.237-2.141,10.174c-1.426,2.938-3.425,5.207-5.995,6.807
				c-2.571,1.6-5.538,2.399-8.902,2.399h-14.703C181.554,271.685,179.304,269.671,179.304,267.209z M197.312,274.183
				c-1.111-2.516-0.175-5.052,2.079-5.636c2.254-0.583,5.041,0.982,6.192,3.479l10.832,23.496c1.151,2.497-0.104,4.541-2.792,4.541
				s-5.794-2.059-6.905-4.574L197.312,274.183z"/>
		</g>
		<g>
			<path fill="#FFFFFF" d="M269.989,237.631c0.997-2.563,3.549-4.66,5.669-4.66s3.855,2.25,3.855,5v57.091c0,2.75-1.808,5-4.018,5
				c-2.209,0-4.017-2.25-4.017-5v-40.25c0-2.75,0.091-4.335,0.202-3.523c0.11,0.812-0.6,3.58-1.577,6.149l-10.896,28.63
				c-0.978,2.57-3.068,4.673-4.646,4.673s-3.685-2.096-4.685-4.658l-10.818-27.737c-1-2.562-1.727-5.53-1.616-6.596
				s0.201,0.312,0.201,3.062v40.25c0,2.75-1.808,5-4.018,5c-2.209,0-4.017-2.25-4.017-5v-57.091c0-2.75,1.735-5,3.855-5
				s4.672,2.097,5.669,4.66l13.614,34.978c0.997,2.563,2.63,2.563,3.627,0L269.989,237.631z"/>
		</g>
		<g>
			<path fill="#FFFFFF" d="M327.317,237.032c0,2.233-1.023,6.064-2.275,8.513l-21.007,41.114c-1.252,2.449-0.025,4.453,2.725,4.453
				h16.365c2.75,0,5,2.014,5,4.476s-2.25,4.476-5,4.476h-26.499c-2.75,0-5-1.827-5-4.061s1.03-6.061,2.289-8.506l21.181-41.128
				c1.259-2.445,0.039-4.445-2.711-4.445h-15.031c-2.75,0-5-2.014-5-4.476c0-2.462,2.25-4.476,5-4.476h24.964
				C325.067,232.971,327.317,234.798,327.317,237.032z"/>
		</g>
	</g>
	<g>
	</g>
	<g>
	</g>
	<g>
	</g>
	<g>
	</g>
	<g>
	</g>
	<g>
	</g>
	<g>
	</g>
	<g>
	</g>
	<g>
	</g>
	<g>
	</g>
	<g>
	</g>
	<g>
	</g>
	<g>
	</g>
	<g>
	</g>
	<g>
	</g>
</g>
</svg>
